<svg
  id="Layer_1"
  data-name="Layer 1"
  xmlns="http://www.w3.org/2000/svg"
  viewBox="0 0 512 512"
>
  <defs>
    <style>
      .cls-1 {
        fill: #579cd6;
      }
    </style>
  </defs>
  <path
    class="cls-1"
    d="M237,33.45h38c5.56.75,11.13,1.44,16.68,2.27,59.73,9,110.49,35.25,151.73,79.39Q495,170.31,508.16,245c1.49,8.47,2.57,17,3.84,25.5v38a18.44,18.44,0,0,0-.83,2.75c-1.38,9.54-2.34,19.16-4.13,28.62-19,101.09-103.83,184.42-205,201.6-9,1.53-18,2.7-27,4H237a18.45,18.45,0,0,0-2.78-.83c-9.54-1.39-19.15-2.35-28.61-4.13-101.06-19-184.4-103.82-201.58-205-1.53-9-2.7-18-4-27v-38a18.45,18.45,0,0,0,.83-2.78c1.39-9.54,2.35-19.15,4.13-28.61C24,137.76,108.68,54.75,210.49,37.43,219.3,35.93,228.16,34.77,237,33.45ZM157.54,193.6c-6.5,16.8-14,63.77-12.71,79.57h94.83V193.6Zm82.1,191.72V305.76H144.56c0,23.15,7.1,66.12,13.36,79.56Zm32.72-191.73v79.52h95.2c-1.11-27.32-5.07-53.78-12.9-79.52Zm-.15,191.69h82.5a315.26,315.26,0,0,0,12.81-79.55H272.21ZM110.79,273.22c3.93-26.93,7.77-53.28,11.64-79.77-21.44,0-43.73-.06-66,.14-1.41,0-3.59,1.77-4.09,3.18-4.93,13.74-10.25,27.39-14.07,41.45-3,11.25-4.17,23-6.22,35Zm290.38-.05h78c-.12-2.26-.14-4.23-.34-6.18a226.39,226.39,0,0,0-16.68-65c-3.65-8.59-3.65-8.59-12.71-8.59H389.58C393.44,220,397.28,246.39,401.17,273.17ZM110.81,305.86H33.05C32.88,325.38,43.12,365.8,52.79,383c.76,1.35,3.36,2.35,5.12,2.37,20,.16,39.94.1,59.91.1h4.6Zm290.35-.19c-3.88,26.72-7.71,53.11-11.56,79.66-.55-.09.08.1.71.1,21.63,0,43.27.09,64.9-.13a6.1,6.1,0,0,0,4.51-3.3c5.28-15.36,10.81-30.68,15.11-46.33,2.65-9.61,3.31-19.77,4.9-30ZM239.54,161.29V69.06c-31.79,24.91-54.18,55.88-70.46,92.23ZM169.09,417.68c16.37,36.35,38.72,67.41,70.65,92.25V417.68ZM343,161.3C326.44,124.75,304.08,93.75,272.34,69V161.3ZM272.14,509.43c23.75-14.47,67.7-72.54,69.75-91.63H272.14Zm167.51-348c-28.47-39.79-64.81-67.23-110.24-83.56.15,1.07.08,1.45.25,1.65A291.24,291.24,0,0,1,376.82,159c.49,1.24,3,2.37,4.53,2.39,13.14.19,26.29.11,39.43.11Zm0,256c-20,0-38.81.09-57.6-.08-3.36,0-4.88.95-6.13,4.14a277,277,0,0,1-44.27,75.34c-.84,1-1.55,2.16-2.32,3.25C374.89,484.61,411.18,457.21,439.66,417.45ZM183.06,77.72c-45.89,16.51-82.25,43.93-110.36,83.22a12.07,12.07,0,0,0,2,.48c18.8,0,37.61-.07,56.41.12,3.17,0,3.69-1.78,4.77-3.9,8.52-16.7,16.61-33.65,25.93-49.9C167.72,97.48,175.49,88.29,183.06,77.72ZM72.31,417.45c28.57,39.82,64.9,67.29,110.58,83.67a9,9,0,0,0-.61-1.86,290.44,290.44,0,0,1-47.16-79.43,4.74,4.74,0,0,0-3.6-2.28C112.22,417.41,92.92,417.45,72.31,417.45Z"
    transform="translate(0 -33.45)"
  />
</svg>
